<?xml version="1.0" standalone="no"?>
<!DOCTYPE svg PUBLIC "-//W3C//DTD SVG 20010904//EN"
 "http://www.w3.org/TR/2001/REC-SVG-20010904/DTD/svg10.dtd">
<svg version="1.0" xmlns="http://www.w3.org/2000/svg"
 width="880.000000pt" height="880.000000pt" viewBox="0 0 880.000000 880.000000"
 preserveAspectRatio="xMidYMid meet">

<g transform="translate(0.000000,880.000000) scale(0.100000,-0.100000)"
fill="#000000" stroke="none">
<path d="M1606 7994 c-27 -198 -138 -1318 -171 -1719 -14 -170 -32 -389 -40
-485 -26 -303 -54 -655 -74 -955 -12 -159 -23 -321 -26 -360 -15 -197 -64
-1057 -85 -1480 -42 -881 -50 -1033 -57 -1120 -4 -49 -8 -94 -8 -98 0 -6 5923
-13 6609 -7 l59 0 -7 167 c-4 93 -13 274 -21 403 -8 129 -19 323 -25 430 -16
316 -39 704 -60 1030 -11 168 -22 346 -25 395 -3 50 -10 151 -15 225 -6 74
-17 239 -25 365 -15 230 -132 1648 -160 1950 -25 264 -41 440 -80 860 -20 220
-38 410 -41 423 l-4 22 -379 0 -379 0 -115 -202 c-230 -405 -310 -554 -552
-1038 -197 -392 -283 -568 -425 -868 -44 -92 -56 -110 -66 -100 -7 7 -102 166
-211 354 -795 1369 -757 1305 -774 1283 -8 -12 -91 -152 -184 -312 -93 -161
-214 -371 -270 -467 -56 -96 -187 -320 -290 -497 -102 -178 -191 -323 -196
-323 -6 0 -65 114 -131 253 -263 545 -641 1285 -757 1482 -45 76 -99 169 -205
353 l-48 82 -378 0 -377 0 -7 -46z m712 -1461 c103 -174 352 -668 527 -1043
125 -269 175 -375 185 -392 6 -10 10 -25 10 -34 0 -15 -248 -450 -485 -854
-34 -58 -156 -266 -270 -462 -114 -197 -212 -358 -217 -358 -6 0 -7 31 -4 78
4 42 13 237 22 432 32 749 73 1394 149 2315 14 165 25 319 25 343 0 23 4 42 9
42 5 0 27 -30 49 -67z m4382 50 c0 -10 5 -63 10 -118 16 -156 38 -416 50 -570
5 -77 15 -194 20 -260 6 -66 23 -352 40 -635 16 -283 32 -555 35 -605 24 -418
53 -1068 47 -1075 -2 -3 -11 4 -19 15 -14 19 -422 719 -668 1145 -62 107 -156
269 -209 360 -53 90 -96 174 -96 186 0 43 436 949 626 1299 41 77 91 170 111
208 35 66 53 83 53 50z m-1953 -1053 c151 -261 284 -491 296 -511 l20 -35 -36
-78 c-21 -42 -37 -79 -37 -81 0 -3 -15 -37 -34 -77 -45 -97 -187 -417 -243
-548 -25 -58 -76 -172 -113 -255 -37 -82 -77 -174 -90 -202 -13 -29 -26 -53
-29 -53 -3 0 -30 57 -60 128 -30 70 -104 240 -166 377 -62 138 -149 336 -195
440 -77 178 -121 276 -157 352 -8 18 -13 40 -9 48 3 9 105 187 227 398 122
210 247 426 278 479 31 54 60 97 64 95 5 -1 132 -216 284 -477z m-1275 -1383
c288 -645 552 -1242 608 -1377 24 -58 48 -111 53 -117 7 -10 89 -12 354 -10
l345 2 19 49 c19 47 473 1070 599 1349 35 76 68 136 74 134 6 -2 31 -39 57
-83 25 -43 240 -413 478 -822 238 -409 435 -750 438 -758 4 -12 -296 -14
-2230 -14 -1779 0 -2236 3 -2239 13 -5 17 19 675 26 693 4 12 67 14 388 14
211 0 388 4 394 8 6 4 53 79 103 167 51 88 181 312 288 498 107 185 198 337
201 337 4 0 24 -38 44 -83z"/>
<path d="M1420 1605 c-62 -20 -113 -65 -144 -127 -22 -44 -26 -65 -26 -142 0
-162 26 -208 201 -362 186 -162 237 -219 255 -283 40 -135 -29 -240 -149 -227
-89 10 -132 64 -157 199 -7 37 -17 67 -24 67 -6 0 -38 -8 -71 -18 l-60 -19 3
-49 c7 -108 66 -218 142 -266 62 -40 112 -51 206 -46 67 4 90 10 135 35 111
62 165 192 139 334 -23 123 -80 202 -264 363 -74 64 -148 132 -164 151 -64 72
-60 207 6 252 33 21 137 24 173 5 37 -20 66 -71 80 -140 6 -34 14 -64 18 -66
3 -2 34 3 69 12 60 16 62 18 62 48 0 57 -38 158 -76 202 -56 66 -102 85 -214
89 -63 2 -110 -2 -140 -12z"/>
<path d="M2037 1338 c-4 -150 -10 -436 -13 -635 l-7 -363 65 0 65 0 7 46 c3
26 7 171 7 323 1 301 11 545 21 521 4 -8 41 -163 83 -345 42 -181 88 -379 102
-438 l25 -108 46 3 47 3 105 442 c58 243 108 445 113 449 4 4 7 -53 7 -128 0
-74 3 -277 7 -451 l6 -317 63 0 c35 0 65 3 67 8 5 7 -9 927 -17 1137 l-4 120
-83 0 -83 0 -43 -195 c-119 -547 -176 -805 -180 -809 -10 -13 -24 44 -154 644
-38 176 -71 330 -74 343 -5 21 -11 22 -89 22 l-83 0 -6 -272z"/>
<path d="M3257 1583 c-48 -225 -119 -561 -171 -813 -36 -173 -70 -334 -76
-357 -18 -74 -18 -73 65 -73 41 0 75 1 75 3 1 1 15 72 33 157 l32 155 132 3
c119 2 132 1 137 -15 2 -10 12 -58 21 -108 8 -49 21 -114 27 -142 l11 -53 79
0 c76 0 78 1 73 23 -3 12 -28 130 -55 262 -55 259 -198 926 -207 963 -5 21
-10 22 -88 22 -82 0 -83 0 -88 -27z m106 -275 c3 -24 24 -141 46 -261 23 -121
41 -227 41 -238 0 -17 -8 -19 -105 -19 -58 0 -105 2 -105 5 0 3 23 127 50 275
28 148 50 272 50 275 0 3 4 5 9 5 4 0 11 -19 14 -42z"/>
<path d="M3838 1604 c-10 -9 -11 -1152 -2 -1218 l7 -47 81 3 81 3 3 298 2 298
72 -3 c70 -3 72 -4 80 -33 4 -16 41 -149 81 -295 l73 -265 82 -3 c49 -2 82 1
82 7 0 5 -15 61 -34 123 -52 171 -136 480 -136 498 0 9 16 24 35 33 45 22 91
93 106 166 6 31 9 94 7 143 -9 144 -67 233 -177 274 -35 13 -92 18 -241 21
-107 3 -198 1 -202 -3z m383 -140 c47 -24 72 -90 72 -190 0 -146 -51 -199
-201 -211 l-82 -6 0 218 0 218 90 -6 c51 -4 104 -14 121 -23z"/>
<path d="M4582 1548 l3 -63 101 -3 101 -3 7 -52 c3 -29 6 -285 6 -569 l0 -518
80 0 80 0 0 518 c0 284 3 541 6 570 l7 52 97 0 98 0 5 58 c2 31 3 60 0 65 -2
4 -137 7 -299 7 l-295 0 3 -62z"/>
<path d="M5665 1438 c-3 -95 -4 -238 -1 -318 2 -80 5 -288 5 -462 l1 -318 245
0 245 0 0 60 0 60 -160 0 -160 0 0 575 0 575 -84 0 -84 0 -7 -172z"/>
<path d="M6481 1563 c-32 -138 -251 -1189 -251 -1205 0 -16 9 -18 75 -18 69 0
75 2 79 23 3 12 17 80 30 150 14 71 28 132 31 138 5 7 265 14 265 7 0 -2 14
-73 30 -158 16 -85 30 -156 30 -157 0 -5 147 -3 152 2 6 6 5 9 -142 698 -66
306 -120 559 -120 562 0 3 -38 5 -84 5 l-84 0 -11 -47z m109 -244 c0 -11 20
-127 45 -257 25 -130 45 -244 45 -254 0 -16 -11 -18 -105 -18 -58 0 -105 4
-105 8 0 9 75 422 91 500 10 50 29 63 29 21z"/>
<path d="M7070 975 l0 -637 213 4 c195 3 216 5 263 26 101 46 155 129 175 267
13 96 -1 199 -37 265 -27 50 -96 110 -125 110 -34 0 -28 17 13 36 84 38 125
137 116 280 -8 133 -55 212 -152 255 -47 21 -69 24 -258 27 l-208 4 0 -637z
m398 485 c56 -25 75 -69 74 -170 0 -97 -22 -152 -71 -182 -31 -20 -50 -23
-131 -23 l-95 0 -3 198 -2 197 92 0 c70 0 103 -5 136 -20z m-41 -521 c58 -15
106 -62 122 -122 19 -67 11 -222 -14 -272 -31 -61 -69 -78 -191 -83 l-104 -5
0 240 c0 132 3 243 7 246 10 11 130 8 180 -4z"/>
</g>
</svg>
